<svg width="18" height="18" viewBox="0 0 18 18" fill="none" xmlns="http://www.w3.org/2000/svg">
<g clip-path="url(#clip0_999_242)">
<path d="M10.3556 5.0394V5.0243L10.3564 5.02514C10.3564 4.79781 10.1719 4.61326 9.94454 4.61326H7.42044V4.18629C7.42044 3.95896 7.23589 3.77441 7.00857 3.77441H6.99346C6.76614 3.77441 6.58159 3.95896 6.58159 4.18629V4.61326H4.05749C3.83016 4.61326 3.64561 4.79781 3.64561 5.02514V5.04024C3.64561 5.26757 3.83016 5.45212 4.05749 5.45212H8.64852C8.56296 6.16682 8.23748 7.62642 7.00101 8.62045C6.52958 8.24045 6.19069 7.79419 5.94658 7.34624C5.8736 7.21286 5.73603 7.12898 5.5842 7.12898C5.27131 7.12898 5.07418 7.46284 5.22181 7.73882C5.47347 8.20774 5.81152 8.67749 6.2645 9.09273C5.67563 9.38884 4.94415 9.591 4.034 9.6363C3.8159 9.64721 3.64478 9.82924 3.64478 10.0473V10.0624C3.64478 10.2982 3.84274 10.4861 4.07762 10.4743C5.30989 10.4148 6.26283 10.0985 7.00018 9.64721C7.73753 10.0985 8.69046 10.4148 9.92273 10.4743C10.1584 10.4861 10.3556 10.2982 10.3556 10.0624V10.0473C10.3556 9.8284 10.1845 9.64721 9.96635 9.6363C9.05704 9.59184 8.32472 9.38968 7.73669 9.09273C9.052 7.8873 9.39593 6.2205 9.48569 5.45128H9.9437C10.171 5.45128 10.3556 5.26673 10.3556 5.0394Z" fill="#1B2343"/>
<path d="M13.4466 8.51738C13.3631 8.15535 13.1322 7.8261 12.7897 7.68254C12.6289 7.61544 12.4674 7.58423 12.3114 7.58423C11.7738 7.58423 11.3072 7.95484 11.1855 8.47915L10.0347 13.3571C9.97852 13.5966 10.1595 13.826 10.4061 13.826C10.5824 13.826 10.7353 13.7051 10.7767 13.5334L11.0802 12.2656H13.5106L13.8024 13.5303C13.8422 13.7035 13.9967 13.826 14.1738 13.826H14.1831C14.4281 13.826 14.6092 13.5982 14.5545 13.3594L13.4451 8.51738H13.4466ZM11.2675 11.4854L11.9455 8.65548C11.9853 8.48461 12.1358 8.36445 12.3114 8.36445C12.3683 8.36445 12.4276 8.37694 12.4877 8.40268C12.5743 8.43857 12.6539 8.55639 12.6851 8.69215L13.3304 11.4854H11.2675Z" fill="#1B2343"/>
<circle cx="9" cy="9.22632" r="8.07368" stroke="#1B2343" stroke-width="1.4"/>
</g>
<defs>
<clipPath id="clip0_999_242">
<rect width="18" height="18" fill="white"/>
</clipPath>
</defs>
</svg>
