<svg width="11" height="11" viewBox="0 0 11 11" fill="none" xmlns="http://www.w3.org/2000/svg">
<path d="M6.7108 1.26499V1.24989L6.71164 1.25073C6.71164 1.0234 6.52709 0.83885 6.29977 0.83885H3.77566V0.411875C3.77566 0.184546 3.59112 0 3.36379 0H3.34869C3.12136 0 2.93682 0.184546 2.93682 0.411875V0.83885H0.412714C0.185386 0.83885 0.000838253 1.0234 0.000838253 1.25073V1.26583C0.000838253 1.49315 0.185386 1.6777 0.412714 1.6777H5.00374C4.91818 2.3924 4.5927 3.852 3.35624 4.84604C2.88481 4.46604 2.54591 4.01977 2.3018 3.57183C2.22882 3.43845 2.09125 3.35456 1.93942 3.35456C1.62653 3.35456 1.4294 3.68843 1.57704 3.96441C1.82869 4.43332 2.16675 4.90308 2.61973 5.31831C2.03086 5.61443 1.29938 5.81659 0.389227 5.86189C0.171125 5.87279 0 6.05482 0 6.27292V6.28802C0 6.52374 0.197969 6.71164 0.432847 6.6999C1.66512 6.64034 2.61805 6.32409 3.3554 5.87279C4.09275 6.32409 5.04568 6.64034 6.27796 6.6999C6.51367 6.71164 6.7108 6.52374 6.7108 6.28802V6.27292C6.7108 6.05398 6.53968 5.87279 6.32158 5.86189C5.41226 5.81743 4.67995 5.61526 4.09191 5.31831C5.40723 4.11288 5.75116 2.44609 5.84091 1.67686H6.29893C6.52625 1.67686 6.7108 1.49231 6.7108 1.26499Z" fill="#1B2343"/>
<path d="M9.80184 4.74296C9.71836 4.38094 9.48741 4.05168 9.14489 3.90812C8.98417 3.84102 8.82266 3.80981 8.66662 3.80981C8.12904 3.80981 7.66247 4.18042 7.54075 4.70473L6.38992 9.58269C6.33375 9.82222 6.51476 10.0516 6.76131 10.0516C6.93764 10.0516 7.09056 9.93067 7.13192 9.75903L7.43542 8.49116H9.86582L10.1576 9.7559C10.1974 9.92911 10.3519 10.0516 10.529 10.0516H10.5384C10.7834 10.0516 10.9644 9.82378 10.9098 9.58504L9.80028 4.74296H9.80184ZM7.62268 7.71094L8.30069 4.88106C8.34048 4.71019 8.49107 4.59004 8.66662 4.59004C8.72357 4.59004 8.78287 4.60252 8.84295 4.62827C8.92955 4.66416 9.00914 4.78197 9.04034 4.91773L9.68559 7.71094H7.62268Z" fill="#1B2343"/>
</svg>
